# xmcd
#
# Track frame offsets:
#	150
#	10359
#	20232
#	32587
#	45341
#	57558
#	69091
#	78197
#	92501
#	106131
#	118166
#	128876
#	143300
#	155908
#	166967
#	176993
#	189776
#	201510
#	213430
#	225703
#	238280
#	252064
#	263954
#	278215
#	291380
#	304888
#	319527
#	331242
#	344020
#	357795
#	366894
#	378615
#	388831
#
# Disc length: 5348 seconds
# Revision: 3
# Processed by: cddbd v1.5.2PL0 Copyright (c) Steve Scherf et al.
# Submitted via: dBpowerAMP V12.0
#
DISCID=f414e221
DTITLE=Various Artist - The Sun Blues Box 7 - Red Hot Rhythm
DYEAR=2013
DGENRE=Blues
TTITLE0=Billy Love - Gee I Wish
TTITLE1=Billy Love - The News Is All Around Town
TTITLE2=Billy Love - Hey Now
TTITLE3=Billy Love - Way After Midnight
TTITLE4=Billy Love - Hart's Bread Boogie
TTITLE5=Little Junior's Blue Flames - Sittin' at the Bar
TTITLE6=Little Junior's Blue Flames - Sittin' at the Window
TTITLE7=Little Junior's Blue Flames - Sittin' Drinkin' and Thinkin'
TTITLE8=Raymond Hill - The Snuggle
TTITLE9=Raymond Hill - Bourbon Street Jump
TTITLE10=Billy "The Kid" Emerson - Shim Sham Shimmy
TTITLE11=Billy "The Kid" Emerson - When It Rains It Pours
TTITLE12=Billy "The Kid" Emerson - Move Baby Move
TTITLE13=Billy "The Kid" Emerson - Red Hot
TTITLE14=Billy "The Kid" Emerson - Satisfied
TTITLE15=Billy "The Kid" Emerson - Something for Nothing
TTITLE16=Billy "The Kid" Emerson - Little Fine Healthy Thing
TTITLE17=Charley Booker - Baby I'm Coming Home
TTITLE18=Charley Booker - Walked All Night
TTITLE19=Eddie Snow - Don't Dog Me Around
TTITLE20=Eddie Snow - Mean Mean Woman
TTITLE21=Eddie Snow - Stay with Me Baby
TTITLE22=Eddie Snow - Who's Been Drinking My Wine?
TTITLE23=Eddie Snow - Sorry Little Baby
TTITLE24=Eddie Snow - Got to Put You Down
TTITLE25=Eddie Snow - Bring Your Love Back Home
TTITLE26=Eddie Snow - Ain't That Right
TTITLE27=Rosco Gordon - That's What You Do to Me
TTITLE28=Rosco Gordon - I Found a New Love
TTITLE29=Rosco Gordon - I'm Gonna Shake It
TTITLE30=Rosco Gordon - Let's Get High
TTITLE31=Guitar Red - Go Ahead On
TTITLE32=Guitar Red - Baby Please Don't Go
EXTD=
EXTT0=
EXTT1=
EXTT2=
EXTT3=
EXTT4=
EXTT5=
EXTT6=
EXTT7=
EXTT8=
EXTT9=
EXTT10=
EXTT11=
EXTT12=
EXTT13=
EXTT14=
EXTT15=
EXTT16=
EXTT17=
EXTT18=
EXTT19=
EXTT20=
EXTT21=
EXTT22=
EXTT23=
EXTT24=
EXTT25=
EXTT26=
EXTT27=
EXTT28=
EXTT29=
EXTT30=
EXTT31=
EXTT32=
PLAYORDER=
